<svg width="20" height="20" viewBox="0 0 20 20" fill="none" xmlns="http://www.w3.org/2000/svg">
<g id="bxs:lock-alt">
<path id="Vector" d="M16.6667 9.99999C16.6667 9.08082 15.9192 8.33332 15 8.33332H14.1667V5.83332C14.1667 3.53582 12.2975 1.66666 10 1.66666C7.70254 1.66666 5.83337 3.53582 5.83337 5.83332V8.33332H5.00004C4.08087 8.33332 3.33337 9.08082 3.33337 9.99999V16.6667C3.33337 17.5858 4.08087 18.3333 5.00004 18.3333H15C15.9192 18.3333 16.6667 17.5858 16.6667 16.6667V9.99999ZM7.50004 5.83332C7.50004 4.45499 8.62171 3.33332 10 3.33332C11.3784 3.33332 12.5 4.45499 12.5 5.83332V8.33332H7.50004V5.83332Z" fill="#7E22CD"/>
</g>
</svg>
