<?xml version="1.0" encoding="utf-8"?>
<!-- Generator: Adobe Illustrator 16.0.0, SVG Export Plug-In . SVG Version: 6.00 Build 0)  -->
<!DOCTYPE svg PUBLIC "-//W3C//DTD SVG 1.1//EN" "http://www.w3.org/Graphics/SVG/1.1/DTD/svg11.dtd">
<svg version="1.1" id="Layer_1" xmlns="http://www.w3.org/2000/svg" xmlns:xlink="http://www.w3.org/1999/xlink" x="0px" y="0px"
	 width="128px" height="128px" viewBox="0 0 128 128" enable-background="new 0 0 128 128" xml:space="preserve">
<g>
	<g>
		<g>
			<g>
				<path fill="none" stroke="#282D33" stroke-width="4" d="M70.029,76.418"/>
			</g>
		</g>
		<g>
			<path fill="#282D33" d="M46.184,92.74c-10.726,0-20.822-4.152-28.434-11.693C10.129,73.496,5.929,63.47,5.924,52.816
				c-0.003-10.622,4.172-20.635,11.758-28.194l2.827,2.837C13.684,34.261,9.927,43.266,9.93,52.814
				c0.004,9.577,3.783,18.594,10.639,25.387c6.857,6.793,15.954,10.533,25.617,10.533c0.011,0,0.021,0.001,0.031,0
				c9.7,0,18.824-3.762,25.695-10.595c6.816-6.786,10.57-15.786,10.57-25.34c0-9.586-3.775-18.604-10.633-25.392l2.818-2.847
				c7.621,7.546,11.82,17.576,11.82,28.239c0,10.627-4.174,20.635-11.752,28.179c-7.625,7.585-17.754,11.761-28.518,11.762
				C46.208,92.74,46.197,92.74,46.184,92.74z"/>
		</g>
		<g>
			<path fill="#282D33" d="M47.567,83.352c-1.382,0-2.773-0.095-4.167-0.286c-7.951-1.092-14.99-5.209-19.818-11.594
				c-4.775-6.315-6.801-14.089-5.704-21.891l3.966,0.557c-0.947,6.739,0.805,13.458,4.933,18.917
				c4.181,5.531,10.279,9.097,17.169,10.042c6.874,0.945,13.71-0.829,19.256-5c5.504-4.134,9.057-10.135,10.006-16.896
				c0.387-2.78,0.32-5.564-0.195-8.273l3.936-0.749c0.598,3.139,0.674,6.361,0.225,9.577c-1.096,7.825-5.203,14.767-11.564,19.544
				C60.338,81.263,54.052,83.352,47.567,83.352z"/>
		</g>
		<g>
			<path fill="#282D33" d="M104.908,128L70.836,94.226l17.166-17.012l34.074,33.771L104.908,128z M76.525,94.226l28.383,28.134
				l11.479-11.375L88.002,82.854L76.525,94.226z"/>
		</g>
		<g>
			
				<rect x="88.1" y="101.727" transform="matrix(0.7102 0.704 -0.704 0.7102 102.0851 -40.535)" fill="#282D33" width="24.357" height="4.007"/>
		</g>
		<g>
			
				<rect x="84.25" y="84.714" transform="matrix(0.7039 0.7103 -0.7103 0.7039 91.2335 -33.8776)" fill="#282D33" width="4.007" height="15.563"/>
		</g>
		<g>
			<g>
				
					<rect x="73.9" y="81.512" transform="matrix(0.7102 0.704 -0.704 0.7102 81.4389 -30.793)" fill="#282D33" width="8.438" height="4.007"/>
			</g>
		</g>
	</g>
	<g>
		<g>
			<path fill="#282D33" d="M46.561,69.674l-1.292-1.092c-1.144-0.966-28.003-23.838-28.003-39.537C17.265,13.03,30.406,0,46.561,0
				c16.151,0,29.291,13.03,29.291,29.045c0,15.699-26.855,38.571-27.998,39.537L46.561,69.674z M46.561,4.006
				c-13.945,0-25.291,11.233-25.291,25.04c0,12.061,19.961,30.61,25.291,35.347c5.328-4.737,25.287-23.286,25.287-35.347
				C71.848,15.239,60.503,4.006,46.561,4.006z"/>
		</g>
		<g>
			<path fill="#282D33" d="M46.561,44.475c-8.578,0-15.557-6.922-15.557-15.43c0-8.506,6.979-15.426,15.557-15.426
				c8.569,0,15.541,6.92,15.541,15.426C62.101,37.553,55.129,44.475,46.561,44.475z M46.561,17.625
				c-6.37,0-11.551,5.123-11.551,11.42c0,6.299,5.182,11.424,11.551,11.424c6.359,0,11.535-5.125,11.536-11.424
				C58.096,22.749,52.921,17.625,46.561,17.625z"/>
		</g>
	</g>
</g>
</svg>
